<svg width="43" height="45" viewBox="0 0 43 45" fill="none" xmlns="http://www.w3.org/2000/svg">
<path d="M10 3.98508L15.2537 1.14423C18.075 -0.381409 21.8975 -0.381409 24.7187 1.14423L30 4C27.7918 3.93697 25.326 3.93703 22.6224 3.93707H16.8007C14.3303 3.93703 12.0583 3.93699 10 3.98508Z" fill="#243A5A"/>
<path d="M2.92893 7.92893C0 10.8579 0 15.5719 0 25C0 34.4281 0 39.1421 2.92893 42.0711C5.85786 45 10.5719 45 20 45C29.4281 45 34.1421 45 37.0711 42.0711C39.0186 40.1236 39.6711 37.3869 39.8898 33H36.5565C33.0233 33 30 30.1788 30 26.5C30 22.8211 33.0233 20 36.5565 20H39.9783C39.8886 13.8011 39.4288 10.2866 37.0711 7.92893C34.1421 5 29.4281 5 20 5C10.5719 5 5.85786 5 2.92893 7.92893Z" fill="#243A5A"/>
<path d="M21.9167 29C22.469 29 22.9268 29.4521 22.8171 29.9934C22.6232 30.9494 22.1522 31.8355 21.4522 32.5355C20.5146 33.4732 19.2428 34 17.9167 34C16.5906 34 15.3189 33.4732 14.3812 32.5355C13.6812 31.8355 13.2102 30.9494 13.0164 29.9934C12.9066 29.4521 13.3644 29 13.9167 29H21.9167Z" fill="#2DF8BB"/>
<path fill-rule="evenodd" clip-rule="evenodd" d="M40.5846 21.0053C40.5016 20.9999 40.4112 21 40.3176 21H36.6199C33.5914 21 31 23.4181 31 26.5714C31 29.7247 33.5914 32.1429 36.6199 32.1429H40.3176C40.4112 32.1429 40.5016 32.1429 40.5846 32.1375C41.8147 32.0587 42.9026 31.0824 42.9941 29.7184C43.0002 29.629 43 29.5326 43 29.4433V23.6995C43 23.6102 43.0002 23.5138 42.9941 23.4243C42.9026 22.0606 41.8147 21.084 40.5846 21.0053ZM36.2942 28.0571C37.0738 28.0571 37.7059 27.3919 37.7059 26.5714C37.7059 25.7509 37.0738 25.0857 36.2942 25.0857C35.5145 25.0857 34.8823 25.7509 34.8823 26.5714C34.8823 27.3919 35.5145 28.0571 36.2942 28.0571Z" fill="#243A5A"/>
<path d="M22.2712 20.7765C21.7377 20.9194 21.411 21.4775 21.6815 21.959C21.9662 22.4658 22.36 22.9081 22.8391 23.2514C23.5913 23.7904 24.5071 24.052 25.4306 23.9914C26.354 23.9309 27.2279 23.5521 27.9033 22.9195C28.5788 22.2869 29.0139 21.4396 29.1347 20.5221C29.2555 19.6046 29.0545 18.6736 28.5658 17.8877C28.0771 17.1019 27.331 16.5098 26.4547 16.2123C25.5784 15.9148 24.6261 15.9304 23.76 16.2564C23.2084 16.464 22.7136 16.7893 22.3074 17.2051C21.9215 17.6002 22.0926 18.2239 22.5709 18.5L23.0782 18.7929C23.8497 19.2384 23.6976 20.3943 22.837 20.6249L22.2712 20.7765Z" fill="#2DF8BB"/>
<path d="M13.8977 20.7765C14.4312 20.9194 14.7579 21.4775 14.4874 21.959C14.2027 22.4658 13.8089 22.9081 13.3299 23.2514C12.5777 23.7904 11.6618 24.052 10.7384 23.9914C9.81496 23.9309 8.94107 23.5521 8.26564 22.9195C7.59021 22.2869 7.15502 21.4396 7.03423 20.5221C6.91344 19.6046 7.11451 18.6736 7.6032 17.8877C8.09188 17.1019 8.83794 16.5098 9.71425 16.2123C10.5905 15.9148 11.5429 15.9304 12.409 16.2564C12.9605 16.464 13.4554 16.7893 13.8616 17.2051C14.2475 17.6002 14.0763 18.2239 13.598 18.5L13.0907 18.7929C12.3192 19.2384 12.4714 20.3943 13.3319 20.6249L13.8977 20.7765Z" fill="#2DF8BB"/>
</svg>
